<?xml version="1.0" encoding="UTF-8"?>
<svg viewBox="0 0 441 295" xmlns="http://www.w3.org/2000/svg">
 <g fill="none" stroke="#000" stroke-linecap="round" stroke-linejoin="round">
  <path d="m224.22 93.519-39.22 28.114-115.54 71.517-30.678 20.37c-13.127 9.3034-18.475 19.407-19.634 29.942-0.94975 11.07 4.604 12.343 12.517 10.062l47.612-13.253v3.1905l37.304-10.553 1.4725-2.2088 29.942-7.6082c12.187-1.04 24.685 0.55541 37.795 7.3627 24.265 16.884 26.764 32.033 38.876 47.887"/>
  <path d="m184.39 122.24 1.2148 108.03"/>
  <path d="m186.4 120.87v20.616c3.7692 1.0726 2.8633 7.3603-1.5339 6.9946"/>
  <path d="m184.99 184.56h4.479l0.0614 4.6631-4.479 0.61356-165.87 54.49"/>
  <path d="m19.09 246.06 8.6771 0.60739 89.546-26.646"/>
  <path d="m87.616 221.99v9.0807"/>
  <path d="m117.31 230.82v-18.775"/>
  <path d="m117.56 215.73 30.187-2.8224 37.427 7.7309"/>
  <path d="m147.5 213.03v10.062"/>
  <path d="m105.51 223.76v1.8222"/>
  <path d="m46.596 241.38v1.4751"/>
  <path d="m37.398 228.45 8.0697-3.9914"/>
  <path d="m47.03 225.15 16.139-9.458 1.5619 1.6486-15.792 9.3712z"/>
  <path d="m21.779 233.65 163.27-88.117"/>
  <path d="m184.44 143.21-162.66 90.188"/>
  <path d="m149.68 195.73a2.256 2.256 0 1 1 -4.5121 0 2.256 2.256 0 1 1 4.5121 0z"/>
  <path d="m191.16 207.45h5.4666v8.8451h-5.4666z"/>
  <path d="m226.04 252.66h-5.5533v-17.094"/>
  <path d="m220.48 238.43h-3.2105v-3.2973h8.2432"/>
  <path d="m224.39 93.172v7.9829l-11.367 5.1195-1.0412-3.8179"/>
  <path d="m224.22 101.24c-2.7972 2.1828-5.9911 3.7211-7.0284 8.7638-1.5885 1.3101-3.1049 2.7067-3.5576 5.3798-0.50025 12.451 0.5415 17.237 1.909 25.511 0.38466 5.2008 1.1456 5.134 1.7354 7.4623 2.1238 11.224 4.51 11.424 6.8549 13.363"/>
  <path d="m224.3 114.52c-2.6786-0.8924-5.5143-1.5753-6.8549-4.2518"/>
  <path d="m215.62 140.81h8.5903v-26.205"/>
 </g>
 <g transform="matrix(-1 0 0 1 448.86 0)" fill="none" stroke="#000" stroke-linecap="round" stroke-linejoin="round">
  <path d="m224.22 93.519-39.22 28.114-115.54 71.517-30.678 20.37c-13.127 9.3034-18.475 19.407-19.634 29.942-0.94975 11.07 4.604 12.343 12.517 10.062l47.612-13.253v3.1905l37.304-10.553 1.4725-2.2088 29.942-7.6082c12.187-1.04 24.685 0.55541 37.795 7.3627 24.265 16.884 26.396 32.033 38.508 47.887"/>
  <path d="m184.39 122.24 1.2148 108.03"/>
  <path d="m186.4 120.87v20.616c3.7692 1.0726 2.8633 7.3603-1.5339 6.9946"/>
  <path d="m184.99 184.56h4.479l0.0614 4.6631-4.479 0.61356-165.87 54.49"/>
  <path d="m19.09 246.06 8.6771 0.60739 89.546-26.646"/>
  <path d="m87.616 221.99v9.0807"/>
  <path d="m117.31 230.82v-18.775"/>
  <path d="m117.56 215.73 30.187-2.8224 37.427 7.7309"/>
  <path d="m147.5 213.03v10.062"/>
  <path d="m105.51 223.76v1.8222"/>
  <path d="m46.596 241.38v1.4751"/>
  <path d="m37.398 228.45 8.0697-3.9914"/>
  <path d="m47.03 225.15 16.139-9.458 1.5619 1.6486-15.792 9.3712z"/>
  <path d="m21.779 233.65 163.27-88.117"/>
  <path d="m184.44 143.21-162.66 90.188"/>
  <path d="m149.68 195.73a2.256 2.256 0 1 1 -4.5121 0 2.256 2.256 0 1 1 4.5121 0z"/>
  <path d="m191.16 207.45h5.4666v8.8451h-5.4666z"/>
  <path d="m226.04 252.66h-5.5533v-17.094"/>
  <path d="m220.48 238.43h-3.2105v-3.2973h8.2432"/>
  <path d="m224.39 93.172v7.9829l-11.367 5.1195-1.0412-3.8179"/>
  <path d="m224.22 101.24c-2.7972 2.1828-5.9911 3.7211-7.0284 8.7638-1.5885 1.3101-3.1049 2.7067-3.5576 5.3798-0.50025 12.451 0.5415 17.237 1.909 25.511 0.38466 5.2008 1.1456 5.134 1.7354 7.4623 2.1238 11.224 4.51 11.424 6.8549 13.363"/>
  <path d="m224.3 114.52c-2.6786-0.8924-5.5143-1.5753-6.8549-4.2518"/>
  <path d="m215.62 140.81h8.5903v-26.205"/>
 </g>
 <path d="m22.824 79.763c15.185-21.462 60.406-7.5378 65.037-3.9268" fill="none" stroke="#000" stroke-linecap="round" stroke-linejoin="round"/>
 <path d="m65.528 68.964-2.6997 6.381c-12.71 0.74444-43.888 0.0357-48.839 11.044-6.0786 16.918 137.93 11.061 187.69 4.7244" fill="none" stroke="#000" stroke-linecap="round" stroke-linejoin="round"/>
 <path d="m31.292 77.493 4.2336-6.8105" fill="none" stroke="#000" stroke-linecap="round" stroke-linejoin="round"/>
 <path d="m149.22 93.261c-8.5994-2.3954 5.8548-4.7909 18.654-7.1863 3.374-0.63145 6.6329-1.2629 9.3243-1.8944-42.121 2.7873-101.66 2.0119-118.05 10.062 53.165 1.7128 97.131-1.1738 142.84-3.1905-11.289-1.6876-22.542-3.3606-33.547-4.9322m-20.119-2.7835c-39.586-5.2665-73.888-8.3712-91.87-4.8009-18.644 5.5601-25.121 12.01 2.6997 15.707" fill="none" stroke="#000" stroke-linecap="round" stroke-linejoin="round"/>
 <path d="m55.533 78.941c11.951 7.102 79.552 3.6756 121.87 5.0327" fill="none" stroke="#000" stroke-linecap="round" stroke-linejoin="round"/>
 <path d="m66.633 94.366c1.7838-2.5609 11.865-3.8772 19.757-5.522" fill="none" stroke="#000" stroke-linecap="round" stroke-linejoin="round"/>
 <path d="m19.02 91.666c2.814-0.04564 3.1816-2.2438 1.5953-2.6997-3.086-3.0286 3.454-5.182 6.9946-7.6082l-5.1539-1.4726" fill="none" stroke="#000" stroke-linecap="round" stroke-linejoin="round"/>
 <path d="m91.421 97.372v5.0312c0.52174 3.2005 10.469-3.0248 16.075-4.9085" fill="none" stroke="#000" stroke-linecap="round" stroke-linejoin="round"/>
 <path d="m109.09 97.188 15.339 15.584 7.7309-0.24542-0.24542-2.9451h15.462l2.4542 3.3132h20.37l-18.284-17.425" fill="none" stroke="#000" stroke-linecap="round" stroke-linejoin="round"/>
 <path d="m35.489 95.601v7.8094l-3.8179 3.5576 2.0825 4.7724 9.5448 8.5903c1.4635 0.82956 2.4075 0.69442 2.256-1.4751l-6.421-10.673-0.26031-4.165 0.86771-0.52062v-7.8094" fill="none" stroke="#000" stroke-linecap="round" stroke-linejoin="round"/>
 <path d="m40.001 103.41 49.806-5.7269" fill="none" stroke="#000" stroke-linecap="round" stroke-linejoin="round"/>
 <path d="m39.567 99.679 6.6813-0.26031-0.08677-3.1237" fill="none" stroke="#000" stroke-linecap="round" stroke-linejoin="round"/>
 <path d="m41.095 110.63a10.065 10.065 0 1 1 -4.9105 3.9131" fill="none" stroke="#000" stroke-linecap="round" stroke-linejoin="round"/>
 <path transform="matrix(.46566 0 0 .46566 23.832 64.158)" d="m43.065 110.12a10.065 10.065 0 1 1 -7.6425 5.8144" fill="none" stroke="#000" stroke-linecap="round" stroke-linejoin="round" stroke-width="2.1475"/>
 <path d="m134.49 109.66v8.8506c1.0718 2.8028 2.7507 0.82267 2.7766 0v-9.0241" fill="none" stroke="#000" stroke-linecap="round" stroke-linejoin="round"/>
 <path d="m137.26 113.26a4.5988 4.5988 0 1 1 -2.9237 -0.11825" fill="none" stroke="#000" stroke-linecap="round" stroke-linejoin="round"/>
 <path transform="matrix(2.0182 0 0 2.0202 -138.08 -120.02)" d="m138.22 113.76a4.5988 4.5988 0 1 1 -6.4837 1.3397" fill="none" stroke="#000" stroke-linecap="round" stroke-linejoin="round" stroke-width=".49525"/>
 <g fill="none" stroke="#000" stroke-linecap="round" stroke-linejoin="round">
  <path d="m222.5 33.439v12.701l11.784 0.0022v-12.703z"/>
  <path d="m222.99 48.962c3.1304-0.5486 3.4978-1.6155 4.8874-2.4542h2.8224v7.9763h-5.0312"/>
  <path d="m222.65 32.562c2.3566-0.02469 4.6218-0.74768 5.9438-1.692 1.4078-0.66006 2.8398-1.1054 4.3385-0.95448-3.1446-4.6551-6.2086-9.8747-10.022-9.8485"/>
  <path d="m222.87 23.451c1.8879-0.0561 4.3607 0.56531 6.5946 1.4317"/>
  <path d="m222.74 19.981v3.5142"/>
  <path d="m230.33 25.647c10.937 2.222 21.625 4.1941 32.237 6.0912 59.532 4.5138 113.28 0.0931 169.62-0.32372 2.7268 0.18574 0.99005 1.53-3.0248 2.1459-52.67 5.2095-110.36 7.9118-165.58 11.843-11.578 2.8682-21.993 3.4099-32.641 4.4176"/>
  <path d="m262.91 31.782 0.67492 13.56"/>
  <path d="m258.92 46.923v12.235l1.909 1.4751 1.6486-0.86771v-14.317"/>
  <path d="m259.96 68.963 1.4751-0.73755v-7.7226"/>
  <path d="m260.62 74.125c0.0868-0.26031-2.1259-14.881-2.1259-14.881-0.94312-2.4799-4.0275-1.5637-3.6444 0.69417l2.256 14.664c1.0867 3.1755 4.0119 1.3037 3.5142-0.47724z"/>
  <path d="m222.83 51.348h2.7767v8.5035c1.4921 0.88811 3.1733 1.3604 3.5576 4.6856v8.8506h-2.9936"/>
 </g>
 <path d="m222.57 63.756a3.384 3.384 0 0 1 3.384 3.384v11.974a3.384 3.384 0 0 1 -3.384 3.384 3.384 3.384 0 0 1 -3.384 -3.384v-11.974a3.384 3.384 0 0 1 3.384 -3.384" fill="none" stroke="#000" stroke-linecap="round" stroke-linejoin="round"/>
 <g transform="matrix(-1 0 0 1 445.4 0)" fill="none" stroke="#000" stroke-linecap="round" stroke-linejoin="round">
  <path d="m222.93 33.439v12.701l11.35 0.0022v-12.703z"/>
  <path d="m222.6 48.962c3.651-0.20151 3.8883-1.6155 5.2779-2.4542h2.8224v7.9763h-5.0312"/>
  <path d="m222.96 32.562c2.3566-0.02469 4.3181-0.74768 5.6401-1.692 1.4078-0.66006 2.8398-1.1054 4.3385-0.95448-3.1446-4.6551-6.2086-9.8747-10.022-9.8485"/>
  <path d="m222.87 23.451c1.8879-0.0561 4.3607 0.56531 6.5946 1.4317"/>
  <path d="m222.74 19.981v3.5142"/>
  <path d="m230.33 25.647c10.937 2.222 21.625 4.1941 32.237 6.0912 59.532 4.5138 113.28 0.0931 169.62-0.32372 2.7268 0.18574 0.99005 1.53-3.0248 2.1459-52.67 5.2095-110.36 7.9118-165.58 11.843-11.578 2.8682-21.993 3.4099-32.641 4.4176"/>
  <path d="m262.91 31.782 0.67492 13.56"/>
  <path d="m258.92 46.923v12.235l1.909 1.4751 1.6486-0.86771v-14.317"/>
  <path d="m259.96 68.963 1.4751-0.73755v-7.7226"/>
  <path d="m260.62 74.125c0.0868-0.26031-2.1259-14.881-2.1259-14.881-0.94312-2.4799-4.0275-1.5637-3.6444 0.69417l2.256 14.664c1.0867 3.1755 4.0119 1.3037 3.5142-0.47724z"/>
  <path d="m222.65 51.348h2.9502v8.5035c1.4921 0.88811 3.1733 1.3604 3.5576 4.6856v8.8506h-2.473"/>
 </g>
</svg>
